<svg preserveAspectRatio="xMidYMid meet" overflow="visible" style="display: block;" viewBox="0 0 24 24" fill="none" xmlns="http://www.w3.org/2000/svg">
<g id="checkmark-container">
<path d="M4 1H20C21.6569 1 23 2.34315 23 4V20C23 21.6569 21.6569 23 20 23H4C2.34315 23 1 21.6569 1 20V4L1.00391 3.8457C1.08163 2.31166 2.31166 1.08163 3.8457 1.00391L4 1Z" stroke="#460019" stroke-width="2"/>
<path id="Vector (Stroke)" fill-rule="evenodd" clip-rule="evenodd" d="M19.7071 6.62622C20.0976 7.01675 20.0976 7.64991 19.7071 8.04044L10.3738 17.3738C9.98325 17.7643 9.35008 17.7643 8.95956 17.3738L4.29289 12.7071C3.90237 12.3166 3.90237 11.6834 4.29289 11.2929C4.68342 10.9024 5.31658 10.9024 5.70711 11.2929L9.66667 15.2524L18.2929 6.62622C18.6834 6.2357 19.3166 6.2357 19.7071 6.62622Z" fill="#460019"/>
</g>
</svg>
