<svg preserveAspectRatio="none" width="100%" height="100%" overflow="visible" style="display: block;" viewBox="0 0 20 20" fill="none" xmlns="http://www.w3.org/2000/svg">
<g id="Icon">
<path id="Vector (Stroke)" d="M1.66667 10.1432V6.66667C1.66667 6.00363 1.93025 5.36793 2.39909 4.89909C2.86793 4.43025 3.50363 4.16667 4.16667 4.16667H7.64323C8.30615 4.16681 8.94209 4.4303 9.41081 4.89909L14.1691 9.65739C14.7019 10.1903 15.0016 10.9131 15.0016 11.6667C15.0016 12.4202 14.7019 13.143 14.1691 13.6759L11.1759 16.6691C10.643 17.2019 9.92025 17.5016 9.16667 17.5016C8.41308 17.5016 7.69029 17.2019 7.15739 16.6691L2.39909 11.9108C1.9303 11.4421 1.66681 10.8061 1.66667 10.1432ZM16.6699 11.6667C16.6699 10.8225 16.3342 10.0127 15.7373 9.41569L11.9108 5.58919C11.5854 5.26376 11.5854 4.73624 11.9108 4.41081C12.2362 4.08537 12.7638 4.08537 13.0892 4.41081L16.9157 8.2373C17.8251 9.14683 18.3366 10.3805 18.3366 11.6667C18.3366 12.9528 17.8251 14.1865 16.9157 15.096L15.5892 16.4225C15.2638 16.748 14.7362 16.748 14.4108 16.4225C14.0854 16.0971 14.0854 15.5696 14.4108 15.2441L15.7373 13.9176C16.3342 13.3207 16.6699 12.5109 16.6699 11.6667ZM5.83333 7.5C6.29357 7.5 6.66667 7.8731 6.66667 8.33333C6.66667 8.79357 6.29357 9.16667 5.83333 9.16667H5.8252C5.36496 9.16667 4.99186 8.79357 4.99186 8.33333C4.99186 7.8731 5.36496 7.5 5.8252 7.5H5.83333ZM3.33333 10.1432L3.3374 10.2254C3.35636 10.4162 3.4407 10.5957 3.57747 10.7324L8.33577 15.4907L8.42204 15.5688C8.63111 15.7401 8.89403 15.835 9.16667 15.835C9.47827 15.835 9.77721 15.711 9.99756 15.4907L12.9907 12.4976L13.0688 12.4113C13.2401 12.2022 13.335 11.9393 13.335 11.6667C13.335 11.394 13.2401 11.1311 13.0688 10.922L12.9907 10.8358L8.23242 6.07747C8.09569 5.9407 7.91621 5.85636 7.72542 5.8374L7.64323 5.83333H4.16667C3.94565 5.83333 3.73375 5.92119 3.57747 6.07747C3.42119 6.23375 3.33333 6.44565 3.33333 6.66667V10.1432Z" fill="var(--fill-0, #460019)"/>
</g>
</svg>
