<svg preserveAspectRatio='xMidYMid meet'   overflow="visible" style="display: block;" viewBox="0 0 18 18" fill="none" xmlns="http://www.w3.org/2000/svg">
<path id="Vector (Stroke)" fill-rule="evenodd" clip-rule="evenodd" d="M5.55585 0.685084C6.64778 0.232792 7.8181 0 9 0C10.1819 0 11.3522 0.232792 12.4442 0.685084C13.5361 1.13738 14.5282 1.80031 15.364 2.63604C16.1997 3.47177 16.8626 4.46392 17.3149 5.55585C17.7672 6.64778 18 7.8181 18 9C18 10.1819 17.7672 11.3522 17.3149 12.4442C16.8626 13.5361 16.1997 14.5282 15.364 15.364C14.5282 16.1997 13.5361 16.8626 12.4442 17.3149C11.3522 17.7672 10.1819 18 9 18C7.8181 18 6.64778 17.7672 5.55585 17.3149C4.46392 16.8626 3.47177 16.1997 2.63604 15.364C1.80031 14.5282 1.13738 13.5361 0.685084 12.4442C0.232792 11.3522 0 10.1819 0 9C0 7.8181 0.232792 6.64778 0.685084 5.55585C1.13738 4.46392 1.80031 3.47177 2.63604 2.63604C3.47177 1.80031 4.46392 1.13738 5.55585 0.685084ZM9 2C8.08075 2 7.1705 2.18106 6.32122 2.53284C5.47194 2.88463 4.70026 3.40024 4.05025 4.05025C3.40024 4.70026 2.88463 5.47194 2.53284 6.32122C2.18106 7.1705 2 8.08075 2 9C2 9.91925 2.18106 10.8295 2.53284 11.6788C2.88463 12.5281 3.40024 13.2997 4.05025 13.9497C4.70026 14.5998 5.47194 15.1154 6.32122 15.4672C7.17049 15.8189 8.08075 16 9 16C9.91925 16 10.8295 15.8189 11.6788 15.4672C12.5281 15.1154 13.2997 14.5998 13.9497 13.9497C14.5998 13.2997 15.1154 12.5281 15.4672 11.6788C15.8189 10.8295 16 9.91925 16 9C16 8.08075 15.8189 7.17049 15.4672 6.32122C15.1154 5.47194 14.5998 4.70026 13.9497 4.05025C13.2997 3.40024 12.5281 2.88463 11.6788 2.53284C10.8295 2.18106 9.91925 2 9 2ZM12.3738 6.51512C12.7643 6.90564 12.7643 7.5388 12.3738 7.92933L8.81822 11.4849C8.42769 11.8754 7.79453 11.8754 7.404 11.4849L5.62623 9.70711C5.2357 9.31658 5.2357 8.68342 5.62623 8.29289C6.01675 7.90237 6.64992 7.90237 7.04044 8.29289L8.11111 9.36356L10.9596 6.51512C11.3501 6.12459 11.9832 6.12459 12.3738 6.51512Z" fill="var(--fill-0, #460019)"/>
</svg>
