<svg preserveAspectRatio='xMidYMid meet'   overflow="visible" style="display: block;" viewBox="0 0 18 16" fill="none" xmlns="http://www.w3.org/2000/svg">
<path id="Vector (Stroke)" fill-rule="evenodd" clip-rule="evenodd" d="M5.80892 2.0192C5.33417 1.96936 4.85422 2.01684 4.39951 2.15842C3.94484 2.29999 3.52593 2.53237 3.16883 2.84005C2.81178 3.14769 2.52436 3.52384 2.32378 3.94423C2.12322 4.36458 2.01357 4.82054 2.00118 5.28352C1.98879 5.74649 2.0739 6.20735 2.25159 6.63726C2.4293 7.06721 2.69602 7.45745 3.03586 7.78292L3.04222 7.78901L8.99798 13.5943L9.2822 13.3098L8.25618 12.3191C7.85888 11.9354 7.8478 11.3024 8.23143 10.9051C8.61506 10.5078 9.24813 10.4967 9.64543 10.8803L10.6957 11.8945L11.5817 11.0074L10.7979 10.2389C10.4036 9.85227 10.3974 9.21914 10.784 8.82479C11.1707 8.43044 11.8038 8.42421 12.1982 8.81087L12.9951 9.59228L13.6424 8.94423L13.4315 8.69519L12.4649 7.71769C12.1239 7.38428 11.6593 7.19431 11.1717 7.19431C10.6821 7.19431 10.2157 7.38589 9.87422 7.72193L8.98579 8.5963C7.98358 9.58266 6.36404 9.58266 5.36183 8.5963L4.87941 8.12152C4.52366 7.77129 4.32074 7.29282 4.32074 6.79061C4.32074 6.28845 4.52352 5.81013 4.87921 5.45991C4.87924 5.45988 4.87918 5.45994 4.87921 5.45991L6.3383 4.02116L7.60731 2.75066C7.46557 2.63831 7.31448 2.5368 7.15531 2.44732C6.74208 2.21503 6.28366 2.06904 5.80892 2.0192ZM9.01143 1.31671C8.74114 1.08492 8.44778 0.879532 8.13536 0.703906C7.48358 0.337513 6.76258 0.108329 6.01775 0.030131C5.27293 -0.0480658 4.51959 0.0263225 3.80493 0.248846C3.09025 0.471377 2.42906 0.837454 1.86334 1.32489C1.29758 1.81236 0.839459 2.41076 0.51872 3.08299C0.19796 3.75526 0.021803 4.48632 0.00189847 5.23001C-0.0180061 5.9737 0.1188 6.71302 0.403257 7.40123C0.687113 8.08798 1.11161 8.70843 1.64919 9.22416L8.3094 15.7161C8.70149 16.0983 9.32802 16.0941 9.71495 15.7067L11.4142 14.0053C11.4152 14.0043 11.4163 14.0033 11.4173 14.0022L13.7089 11.7078C13.7095 11.7071 13.7102 11.7065 13.7109 11.7058L15.7014 9.71284C15.9229 9.49862 16.3015 9.1286 16.658 8.73522C16.9809 8.37885 17.4133 7.86894 17.6037 7.40385C17.8849 6.71683 18.0192 5.9795 17.9978 5.23817C17.9764 4.49684 17.7997 3.76837 17.4794 3.09846C17.1591 2.42859 16.7023 1.83218 16.1385 1.34598C15.5748 0.859811 14.9161 0.494189 14.204 0.271136C13.492 0.0480922 12.7412 -0.0278111 11.9985 0.0479418C11.2558 0.123696 10.5362 0.349566 9.88492 0.712058C9.57375 0.88524 9.28127 1.08788 9.01143 1.31671ZM15.0577 7.52079C15.0974 7.47823 15.1369 7.43528 15.176 7.39217C15.3326 7.21933 15.4724 7.05427 15.5814 6.90924C15.6355 6.83717 15.6774 6.77606 15.7082 6.7264C15.7233 6.70193 15.7344 6.68247 15.7421 6.66783C15.7495 6.65374 15.7525 6.64671 15.7527 6.64623C15.9284 6.21709 16.012 5.75746 15.9986 5.29595C15.9853 4.83444 15.8753 4.38009 15.675 3.96121C15.4747 3.54229 15.1881 3.16738 14.8323 2.86055C14.4765 2.55367 14.0592 2.32159 13.6062 2.17969C13.1532 2.03778 12.6748 1.98933 12.2014 2.03762C11.728 2.0859 11.2705 2.22979 10.8575 2.45963C10.4446 2.68944 10.0855 3.00001 9.80203 3.37107C9.77523 3.40615 9.74613 3.43943 9.71492 3.47067L7.74528 5.44261L6.37827 6.79052L6.76472 7.17086C6.98854 7.39114 7.35908 7.39114 7.5829 7.17086L8.47133 6.29649C9.1902 5.58899 10.1619 5.19431 11.1717 5.19431C12.1816 5.19431 13.1533 5.58898 13.8721 6.29648L13.8819 6.30604L14.8807 7.3164C14.8988 7.33468 14.9162 7.35364 14.9328 7.37325L15.0577 7.52079Z" fill="var(--fill-0, #460019)"/>
</svg>
