<svg preserveAspectRatio='xMidYMid meet'   overflow="visible" style="display: block;" viewBox="0 0 18 18" fill="none" xmlns="http://www.w3.org/2000/svg">
<path id="Vector (Stroke)" fill-rule="evenodd" clip-rule="evenodd" d="M12.5352 0.300855C13.0147 0.102231 13.5286 0 14.0477 0C14.5667 0 15.0806 0.102231 15.5602 0.300855C16.0397 0.499479 16.4754 0.790606 16.8424 1.15762C17.2094 1.52462 17.5005 1.96033 17.6991 2.43985C17.8978 2.91937 18 3.43332 18 3.95235C18 4.47137 17.8978 4.98532 17.6991 5.46484C17.5005 5.94437 17.2094 6.38007 16.8424 6.74708L15.8103 7.77914C15.8064 7.78315 15.8025 7.78713 15.7986 7.79108C15.7946 7.79504 15.7906 7.79896 15.7866 7.80284L5.88236 17.7071C5.69482 17.8946 5.44047 18 5.17525 18H1C0.447715 18 0 17.5523 0 17V12.8248C0 12.5595 0.105357 12.3052 0.292893 12.1176L11.2529 1.15762C11.6199 0.790606 12.0556 0.499479 12.5352 0.300855ZM15.0914 5.66967L15.4282 5.33286C15.6095 5.15157 15.7533 4.93635 15.8514 4.69948C15.9495 4.46261 16 4.20874 16 3.95235C16 3.69596 15.9495 3.44208 15.8514 3.20522C15.7533 2.96835 15.6095 2.75312 15.4282 2.57183C15.2469 2.39054 15.0317 2.24673 14.7948 2.14861C14.5579 2.0505 14.304 2 14.0477 2C13.7913 2 13.5374 2.0505 13.3005 2.14861C13.0637 2.24673 12.8484 2.39054 12.6671 2.57183L12.3303 2.90863L15.0914 5.66967ZM10.9161 4.32284L13.6772 7.08388L4.76103 16H2V13.239L10.9161 4.32284Z" fill="var(--fill-0, #460019)"/>
</svg>
