<svg preserveAspectRatio="xMidYMid meet" overflow="visible" style="display: block;" viewBox="0 0 20.3142 15.8521" fill="none" xmlns="http://www.w3.org/2000/svg">
<g id="icon_heart">
<path id="icon_heart_2" d="M20.3021 5.70095L20.3142 5.6888L18.4151 3.78849L14.7745 0L14.6896 0.0849981L10.1511 4.62026L5.61251 0.0789268L0 5.69487L2.26927 7.96554C2.26927 7.96554 2.29354 7.99589 2.30568 8.01411L3.30076 9.0098C3.30076 9.0098 3.3311 9.03409 3.3493 9.04623L5.61857 11.3169L9.62924 15.3239L10.1571 15.8522L12.3961 13.6118C12.3961 13.6118 12.4507 13.5693 12.4749 13.5451L16.4249 9.57443L20.3021 5.69487V5.70095ZM14.1617 9.708L11.3949 12.4765C11.225 12.6465 11.0308 12.7679 10.8246 12.8529C10.1996 13.0958 9.44721 12.9744 8.95574 12.4947C8.94967 12.4887 8.93754 12.4826 8.93147 12.4765L6.70467 10.2483L6.91097 10.0359L10.7032 6.24129L13.4761 3.46064C14.1132 2.82315 15.1204 2.7928 15.8 3.34528L17.0499 4.59597C17.596 5.27596 17.5656 6.2595 16.9528 6.90306L15.9274 7.92911L14.1556 9.70193L14.1617 9.708ZM3.37964 6.92735C3.03985 6.58735 2.86996 6.13808 2.86996 5.69487C2.86996 5.2456 3.03985 4.80239 3.37964 4.4624L3.96819 3.87349L4.37472 3.46671C5.05429 2.78672 6.16465 2.78672 6.84422 3.46671L9.07102 5.69487L6.78961 7.97768C6.68647 8.07482 6.57118 8.15375 6.44983 8.22053C5.78847 8.5666 4.92687 8.47553 4.38079 7.93518L3.37964 6.93342V6.92735Z" fill="url(#paint0_linear_2816_43)"/>
<rect id="RoundedRectangle" x="7.91895" y="4.54218" width="1.52924" height="1.63041" transform="rotate(-44.87 7.91895 4.54218)" fill="url(#paint1_linear_2816_43)" fill-opacity="0.22"/>
<rect id="RoundedRectangle_2" x="7.86035" y="11.3981" width="1.52924" height="1.63041" transform="rotate(134.982 7.86035 11.3981)" fill="url(#paint2_linear_2816_43)" fill-opacity="0.22"/>
</g>
<defs>
<linearGradient id="paint0_linear_2816_43" x1="2.20071" y1="-5.72436e-07" x2="14.53" y2="12.2838" gradientUnits="userSpaceOnUse">
<stop stop-color="white"/>
<stop offset="0.147793" stop-color="white" stop-opacity="0.95"/>
<stop offset="0.237784" stop-color="white"/>
<stop offset="0.8745" stop-color="white"/>
<stop offset="0.971179" stop-color="white" stop-opacity="0.95"/>
<stop offset="1" stop-color="white"/>
</linearGradient>
<linearGradient id="paint1_linear_2816_43" x1="8.68357" y1="4.54218" x2="8.68357" y2="6.17258" gradientUnits="userSpaceOnUse">
<stop stop-color="white" stop-opacity="0"/>
<stop offset="1" stop-color="#FF3C3C"/>
</linearGradient>
<linearGradient id="paint2_linear_2816_43" x1="8.62497" y1="11.3981" x2="8.62497" y2="13.0285" gradientUnits="userSpaceOnUse">
<stop stop-color="white" stop-opacity="0"/>
<stop offset="1" stop-color="#FF3C3C"/>
</linearGradient>
</defs>
</svg>
