<svg preserveAspectRatio="xMidYMid meet" overflow="visible" style="display: block;" viewBox="0 0 40.7122 43.594" fill="none" xmlns="http://www.w3.org/2000/svg">
<g id="Jeg st&#195;&#184;tter lokalt">
<path id="Vector" opacity="0.5" d="M38.024 0.432041C38.3932 1.28354 38.1123 2.12648 37.1583 2.54005L35.5815 3.22365L35.8993 3.95689L35.0636 4.3192L34.7457 3.58596L33.7129 4.03372L33.3301 3.15068L34.3629 2.70292L33.9254 1.69373L34.7612 1.33142L35.1987 2.34061L36.7361 1.6741C37.1855 1.47928 37.3203 1.05558 37.1528 0.669249C37.1118 0.574637 37.03 0.450859 36.9722 0.38227L37.7243 0C37.8421 0.0988046 37.9522 0.266471 38.024 0.432041Z" fill="var(--fill-0, #613927)"/>
<path id="Vector_2" opacity="0.5" d="M39.5129 4.44624L33.7762 6.25559L33.4893 5.34591L39.226 3.53656L39.5129 4.44624Z" fill="var(--fill-0, #613927)"/>
<path id="Vector_3" opacity="0.5" d="M35.7168 6.57963L39.8578 5.8656L40.0213 6.81405L39.2931 6.93963C39.8607 7.14695 40.2447 7.60394 40.3586 8.26447C40.5499 9.37382 39.7349 10.4125 38.5409 10.6184C37.3469 10.8243 36.2396 10.1171 36.0483 9.00771C35.9344 8.34718 36.1432 7.78797 36.6086 7.40251L35.8803 7.52808L35.7168 6.57963ZM39.426 8.21601C39.3018 7.4962 38.6664 7.04768 37.9466 7.1718C37.2353 7.29445 36.7867 7.92988 36.9109 8.64968C37.0321 9.35256 37.6859 9.80662 38.3803 9.68689C39.0832 9.56569 39.5472 8.91888 39.426 8.21601Z" fill="var(--fill-0, #613927)"/>
<path id="Vector_4" opacity="0.5" d="M34.6606 13.7858L38.0289 13.8253L36.4946 12.0198L36.5088 10.8168L38.0687 12.6312L40.7122 10.7286L40.6979 11.9488L38.6706 13.343L39.0944 13.8378L40.6755 13.8563L40.6643 14.8101L34.6494 14.7395L34.6606 13.7858Z" fill="var(--fill-0, #613927)"/>
<path id="Vector_5" opacity="0.5" d="M35.9259 17.4794C36.1579 16.2814 37.2672 15.5246 38.4905 15.7614C39.7054 15.9967 40.4521 17.1128 40.2202 18.3108C39.9849 19.5257 38.8772 20.274 37.6624 20.0388C36.439 19.802 35.6907 18.6942 35.9259 17.4794ZM36.8202 17.6525C36.6863 18.3443 37.1301 18.9904 37.8388 19.1276C38.539 19.2632 39.1835 18.8278 39.3174 18.136C39.4481 17.4611 39.0143 16.8082 38.3141 16.6726C37.6054 16.5354 36.9509 16.9776 36.8202 17.6525Z" fill="var(--fill-0, #613927)"/>
<path id="Vector_6" opacity="0.5" d="M39.0912 22.5127L33.3887 20.5982L33.6923 19.6939L39.3948 21.6085L39.0912 22.5127Z" fill="var(--fill-0, #613927)"/>
<path id="Vector_7" opacity="0.5" d="M36.7557 27.4928L33.0674 25.4793L33.5244 24.642L34.0524 24.9303C33.7885 24.5708 33.7661 24.0201 33.9637 23.6581C34.0626 23.477 34.1874 23.32 34.302 23.2357L35.0631 23.7785C34.9286 23.8813 34.812 24.0232 34.7255 24.1816C34.5031 24.5889 34.5955 25.2268 35.2441 25.5809L37.2127 26.6556L36.7557 27.4928Z" fill="var(--fill-0, #613927)"/>
<path id="Vector_8" opacity="0.5" d="M34.9678 30.1867C34.2376 31.1536 32.8981 31.3589 31.89 30.5976C30.9162 29.8623 30.7367 28.5315 31.4668 27.5645C32.1556 26.6524 33.3953 26.4795 34.3142 27.1734C34.3965 27.2355 34.5233 27.3528 34.6073 27.427L32.655 30.0124C33.2863 30.3599 33.8986 30.2192 34.3181 29.6638C34.6029 29.2866 34.7197 28.804 34.561 28.4581L35.3818 28.1411C35.6411 28.7246 35.4908 29.494 34.9678 30.1867ZM32.1082 29.5671L33.465 27.7704C32.9984 27.5042 32.4325 27.6261 32.0856 28.0856C31.7127 28.5793 31.7453 29.1208 32.1082 29.5671Z" fill="var(--fill-0, #613927)"/>
<path id="Vector_9" opacity="0.5" d="M32.7357 32.8976C32.0728 33.5472 31.1852 33.5868 30.4575 32.8442L29.2546 31.6167L28.6838 32.1761L28.0462 31.5255L28.617 30.9661L27.8291 30.1621L28.5165 29.4885L29.3044 30.2925L30.09 29.5226L30.7276 30.1732L29.942 30.9431L31.1148 32.1399C31.4576 32.4897 31.9015 32.4638 32.2022 32.1691C32.2759 32.0969 32.3622 31.9763 32.4055 31.8977L33.0318 32.4631C32.9817 32.6085 32.8646 32.7713 32.7357 32.8976Z" fill="var(--fill-0, #613927)"/>
<path id="Vector_10" opacity="0.5" d="M30.1251 35.3063C29.3889 35.8714 28.503 35.8041 27.8698 34.9793L26.8232 33.6161L26.1893 34.1027L25.6346 33.3802L26.2685 32.8935L25.583 32.0006L26.3464 31.4145L27.0319 32.3074L27.9044 31.6376L28.4591 32.3601L27.5866 33.03L28.6071 34.3591C28.9053 34.7476 29.3491 34.7753 29.6831 34.5189C29.7649 34.4561 29.8651 34.3467 29.9175 34.2739L30.4713 34.9105C30.4041 35.0488 30.2682 35.1964 30.1251 35.3063Z" fill="var(--fill-0, #613927)"/>
<path id="Vector_11" opacity="0.5" d="M24.4299 39.1832L23.7108 39.0885L23.8488 38.3946C23.388 38.2166 22.9821 37.8711 22.717 37.3893C22.1163 36.2976 22.4887 35.0137 23.5729 34.4172C23.9192 34.2266 24.2927 34.1388 24.6541 34.1361L24.782 33.4773L25.5044 33.5603L25.3672 34.2734C25.8431 34.4431 26.2606 34.792 26.5341 35.2889C27.1347 36.3806 26.7506 37.6611 25.6815 38.2493C25.3201 38.4482 24.9316 38.5443 24.5544 38.5361L24.4299 39.1832ZM25.2838 37.5266C25.9463 37.162 26.1732 36.38 25.7962 35.6949C25.6512 35.4314 25.4434 35.2319 25.2077 35.1066L24.7139 37.7029C24.9017 37.6878 25.0956 37.6301 25.2838 37.5266ZM24.0075 37.5422L24.4946 34.9693C24.3184 34.9878 24.1396 35.0371 23.9664 35.1324C23.2889 35.5053 23.0812 36.2865 23.4623 36.9791C23.599 37.2276 23.791 37.4162 24.0075 37.5422Z" fill="var(--fill-0, #613927)"/>
<path id="Vector_12" opacity="0.5" d="M22.496 39.8267C21.6238 40.1437 20.7994 39.8124 20.4442 38.8351L19.8572 37.2199L19.106 37.4928L18.7949 36.6367L19.546 36.3637L19.1615 35.3057L20.0661 34.977L20.4506 36.035L21.4844 35.6593L21.7955 36.5154L20.7617 36.8911L21.3341 38.466C21.5014 38.9264 21.9162 39.0865 22.3119 38.9427C22.4088 38.9075 22.5373 38.8333 22.6093 38.7798L22.9454 39.5536C22.8397 39.6652 22.6656 39.765 22.496 39.8267Z" fill="var(--fill-0, #613927)"/>
<path id="Vector_13" opacity="0.5" d="M17.9798 41.215C17.3173 41.3631 16.5603 41.2857 16.0791 41.0234L16.2934 40.2095C16.6693 40.4336 17.32 40.5084 17.7812 40.4053C18.1922 40.3134 18.4147 40.0876 18.3566 39.8276C18.1879 39.0729 16.0249 40.111 15.6856 38.593C15.5151 37.8299 16.053 37.1637 17.0007 36.952C17.5626 36.8264 18.1955 36.861 18.646 37.1038L18.427 37.9364C18.0362 37.7243 17.4844 37.698 17.1405 37.7748C16.738 37.8648 16.5416 38.0496 16.5978 38.3011C16.759 39.0224 18.9696 38.0793 19.307 39.5888C19.4701 40.3184 18.9275 41.0032 17.9798 41.215Z" fill="var(--fill-0, #613927)"/>
<path id="Vector_14" opacity="0.5" d="M10.4701 43.5931C9.74852 43.5751 8.95602 43.2975 8.57178 42.8495L9.06935 42.2C9.41342 42.5352 9.93316 42.7201 10.4916 42.734C11.1359 42.7501 11.7827 42.3192 11.8007 41.5976L11.8155 41.0049C11.5019 41.5128 10.9792 41.792 10.3092 41.7753C9.18379 41.7473 8.32294 40.7631 8.35229 39.5861C8.38207 38.392 9.29046 37.4691 10.4158 37.4972C11.0859 37.5139 11.5941 37.8188 11.8819 38.3418L11.9001 37.6116L12.8622 37.6356L12.7628 41.6216C12.7322 42.8501 11.7244 43.6244 10.4701 43.5931ZM10.5376 40.887C11.2678 40.9053 11.8309 40.3863 11.8487 39.6733C11.8669 38.9431 11.3301 38.4054 10.5999 38.3872C9.88692 38.3694 9.30623 38.9051 9.28867 39.6095C9.27132 40.3053 9.82459 40.8693 10.5376 40.887Z" fill="var(--fill-0, #613927)"/>
<path id="Vector_15" opacity="0.5" d="M5.21695 41.2636C4.03288 41.0066 3.28447 39.8768 3.55245 38.6424C3.81132 37.4499 4.94399 36.7285 6.12807 36.9855C7.24496 37.228 7.92215 38.2807 7.67787 39.406C7.65599 39.5068 7.60274 39.6711 7.57064 39.7785L4.40471 39.0912C4.35417 39.8101 4.73876 40.3068 5.41898 40.4545C5.88085 40.5548 6.36786 40.4582 6.61531 40.169L7.24746 40.7811C6.82665 41.2613 6.06512 41.4477 5.21695 41.2636ZM4.57939 38.408L6.77959 38.8857C6.82543 38.3504 6.47736 37.888 5.91472 37.7658C5.31008 37.6346 4.83225 37.8914 4.57939 38.408Z" fill="var(--fill-0, #613927)"/>
<path id="Vector_16" opacity="0.5" d="M0.386776 38.8257C0.424028 38.8487 0.464284 38.8638 0.512591 38.8818C1.01982 39.071 1.40073 38.9105 1.65005 38.2422L3.09488 34.3696L4.03687 34.721L2.49592 38.8513C2.12345 39.8496 1.30838 40.2151 0.446903 39.8937C0.326135 39.8486 0.13591 39.7685 0 39.6903L0.386776 38.8257Z" fill="var(--fill-0, #613927)"/>
</g>
</svg>
