<svg preserveAspectRatio="xMidYMid meet" width="48" height="20" viewBox="0 0 48 20" fill="none" xmlns="http://www.w3.org/2000/svg">
  <g clip-path="url(#clip0_0_7)">
    <path d="M39.72 19.6155H45.384L45.744 18.0774L39.144 7.90675L44.784 3.50877C45.648 2.83586 46.272 2.40327 47.304 2.40327H47.544L48 0.384523H39.552L39.096 2.40327H39.816C40.344 2.40327 40.656 2.52343 40.656 2.85989C40.656 3.19635 40.464 3.41264 40.152 3.65297L33.1632 9.15645L33.1152 9.39678L39.72 19.6155ZM22.0512 19.6155H31.968L32.424 17.5967H31.584C30.744 17.5967 30.48 17.2362 30.672 16.3951L33.6192 3.6049C33.8112 2.76376 34.2432 2.40327 35.0832 2.40327H35.6832L36.1392 0.384523H26.3472L25.8912 2.40327H26.7552C27.5952 2.40327 27.8112 2.76376 27.6192 3.6049L24.6672 16.3951C24.4752 17.2362 24.0672 17.5967 23.2272 17.5967H22.5072L22.0512 19.6155ZM10.2864 17.3083C6.44639 17.3083 5.29439 14.3523 6.44639 9.40159C7.40639 5.19587 9.42239 2.69647 12.7824 2.69647C16.6224 2.69647 17.7744 5.65249 16.6224 10.6032C15.6624 14.8089 13.6464 17.3083 10.2864 17.3083ZM10.0464 20C16.2864 20 21.5232 16.8998 22.7952 11.3242C24.2592 4.90267 19.7472 0 13.0224 0C6.78239 0 1.54559 3.10022 0.273594 8.6758C-1.18561 15.0973 3.32639 20 10.0464 20Z" fill="#FF3C3C"/>
  </g>
  <defs>
    <clipPath id="clip0_0_7">
      <rect width="48" height="20" fill="white"/>
    </clipPath>
  </defs>
</svg>
