<svg preserveAspectRatio="none" width="100%" height="100%" overflow="visible" style="display: block;" viewBox="0 0 114.588 138.829" fill="none" xmlns="http://www.w3.org/2000/svg">
<g id="Group 4715">
<path id="Vector 1" d="M49.4221 129.616C49.4372 129.114 49.729 128.211 49.8907 127.708C49.8937 127.698 49.8966 127.689 49.8996 127.68C49.9371 127.563 49.9683 127.453 50.0055 127.321C50.0951 127.002 50.2153 126.575 50.5226 125.706C50.5903 125.44 50.6561 125.186 50.725 124.926C51.4689 122.114 52.2882 119.335 53.1145 116.549C53.123 116.512 53.1319 116.475 53.1403 116.439C53.3054 115.74 53.5128 114.856 53.6924 114.315C53.9145 113.645 54.0767 113.196 54.2156 112.814C54.2196 112.803 54.2234 112.793 54.2273 112.782C54.8719 110.579 55.4534 108.354 55.9335 106.11C56.0834 105.41 56.2245 104.702 56.3543 103.993C56.4739 103.34 56.5853 102.686 56.689 102.033C56.7274 101.654 56.7591 101.278 56.7856 100.94C56.8227 100.467 56.8549 100.036 56.8969 99.6879C56.9977 98.853 57.1773 97.9067 57.3057 97.2011C57.3266 97.0867 57.3461 96.9791 57.3638 96.8798C57.4243 96.3108 57.4784 95.7593 57.5318 95.1858C57.546 95.1493 57.5607 95.1126 57.5756 95.0753C57.7617 94.6147 57.8322 94.0191 57.9325 93.0897C57.9764 92.6818 58.0252 92.2157 58.091 91.6609C58.1326 91.3102 58.2018 91.1269 58.258 90.9804C58.2745 90.9372 58.2899 90.8968 58.3032 90.8558C58.3486 90.7152 58.3289 90.5615 58.3052 90.3822C58.2749 90.1439 58.2384 89.8541 58.3275 89.4979C58.6127 88.3366 58.5288 87.8162 58.4677 87.4138C58.4496 87.2955 58.4331 87.1894 58.4277 87.0826C58.4094 86.7455 58.4914 86.2432 58.5786 85.8795C58.6483 85.5848 58.6435 84.987 58.6142 84.5428C58.6039 84.365 58.6193 84.1381 58.6377 83.8705C58.6577 83.5811 58.6797 83.2657 58.6803 82.9124C58.6813 82.0309 58.6945 81.547 58.7139 81.1509C58.7174 81.0812 58.721 81.0165 58.7246 80.9546C58.725 80.9498 58.7274 80.9356 58.7279 80.9308C58.7311 80.8914 58.7343 80.8528 58.7374 80.8143C58.7629 80.4989 58.8048 80.108 58.8484 79.7132C58.9005 79.2407 58.9551 78.7622 58.984 78.3976C59.1436 77.5716 59.3088 76.7552 59.4521 75.9458L59.4468 75.9924C59.4597 75.8975 59.4714 75.8018 59.482 75.7054C59.5315 75.2605 59.6476 74.8156 59.8323 74.4779C60.0167 74.1406 60.2543 73.9455 60.5015 73.9459C60.7483 73.9463 60.9874 74.1373 61.1686 74.4854C61.349 74.8332 61.4552 75.3176 61.4404 75.8359C61.4372 75.9477 61.4327 76.0601 61.4266 76.173C61.4255 76.1808 61.4236 76.2043 61.4222 76.2121C61.3375 77.0987 61.23 77.9734 61.1201 78.8391C61.0175 79.6435 60.9121 80.4421 60.8035 81.2407L60.8068 81.2164C60.769 81.558 60.7372 81.9366 60.7061 82.307C60.6379 83.1317 60.5766 83.9532 60.5065 84.7885C60.4995 84.872 60.4923 84.9565 60.485 85.0421C60.4956 85.7527 60.5003 86.443 60.4812 86.9507C60.4671 87.3472 60.41 87.657 60.3623 87.9036C60.3294 88.0743 60.2999 88.2275 60.2895 88.386C60.284 88.4699 60.2775 88.5925 60.2707 88.7272C60.2423 89.2852 60.1867 90.2681 60.0428 91.1285C59.9777 91.5249 59.8822 91.9556 59.7868 92.3901C59.6525 92.992 59.521 93.5732 59.5092 93.856C59.4869 94.3673 59.3876 94.9482 59.2971 95.4601C59.2098 95.9579 59.1339 96.3696 59.142 96.6239C59.1518 96.9265 59.0993 97.1681 59.0193 97.5331C58.9639 97.7847 58.894 98.1053 58.8237 98.5238C58.7417 99.0111 58.6537 99.366 58.581 99.6507C58.4777 100.057 58.3974 100.373 58.3799 100.845C58.361 101.367 58.309 101.928 58.2181 102.343C58.1764 102.535 58.1405 102.757 58.1023 102.99C58.0512 103.302 57.9986 103.616 57.9231 103.906C57.861 104.144 57.7771 104.336 57.7024 104.506C57.6791 104.56 57.6568 104.611 57.6365 104.659C57.6017 104.849 57.5667 105.04 57.5316 105.232C57.5333 105.265 57.5354 105.299 57.5376 105.335C57.5484 105.514 57.5611 105.736 57.5363 106.004C57.4985 106.42 57.4 106.776 57.294 107.154C57.2108 107.452 57.1261 107.747 57.0596 108.103C57.0145 108.345 56.9744 108.626 56.9347 108.902C56.8763 109.308 56.8157 109.712 56.7356 109.986C56.7056 110.089 56.656 110.172 56.6067 110.254C56.6064 110.255 56.6061 110.255 56.6059 110.255C56.6025 110.261 56.5992 110.266 56.5959 110.272C56.4677 110.941 56.3319 111.632 56.1974 112.301C56.1909 112.36 56.1841 112.421 56.1772 112.481C56.1438 112.774 56.1098 113.06 56.1137 113.254C56.1139 113.264 56.1139 113.275 56.1137 113.287C56.1086 113.514 56.021 113.991 55.9313 114.48C55.8686 114.821 55.8016 115.182 55.7604 115.47C55.7358 115.64 55.6678 115.783 55.5948 115.942C55.5272 116.088 55.458 116.236 55.4224 116.408C55.4046 116.494 55.3939 116.589 55.3826 116.689C55.3727 116.778 55.3623 116.871 55.346 116.967C55.3314 117.054 55.2632 117.255 55.178 117.502C55.1252 117.656 55.0656 117.83 55.0067 118.011C54.8994 118.51 54.7918 119.005 54.6817 119.504C54.6813 119.615 54.6925 119.713 54.7182 119.795C54.7366 119.854 54.7632 119.907 54.7903 119.961C54.8272 120.035 54.8653 120.111 54.8865 120.207C54.9031 120.283 54.8964 120.364 54.8689 120.413C54.8561 120.436 54.8389 120.451 54.8234 120.465C54.8056 120.482 54.7895 120.497 54.7842 120.519C54.7804 120.535 54.7852 120.554 54.7909 120.577C54.8 120.614 54.8117 120.661 54.7961 120.725C54.738 120.962 54.6622 121.226 54.5887 121.48C54.5048 121.772 54.4229 122.055 54.3717 122.28C54.3158 122.526 54.1845 122.892 54.0584 123.238C53.9714 123.476 53.8792 123.733 53.8136 123.945C53.7486 124.154 53.7112 124.372 53.6714 124.597C53.6247 124.862 53.5822 125.108 53.4975 125.31C53.4802 125.352 53.4298 125.396 53.3667 125.45C53.3221 125.489 53.271 125.534 53.2208 125.586C53.1502 125.853 53.0795 126.114 53.0047 126.384C53.0071 126.395 53.0095 126.406 53.012 126.417C53.0121 126.417 53.0122 126.418 53.0123 126.418C53.0697 126.667 53.1483 127.007 52.9415 127.404C52.8892 127.504 52.8274 127.558 52.7718 127.607C52.7176 127.653 52.6672 127.702 52.6389 127.778C52.6066 127.866 52.6025 127.977 52.5983 128.097C52.5926 128.265 52.5863 128.453 52.4991 128.625C52.4932 128.637 52.4868 128.65 52.4803 128.663C52.4177 128.788 52.3284 128.96 52.1952 129.134C52.0208 129.698 51.8434 130.256 51.6631 130.815C51.3626 131.749 51.0543 132.679 50.7546 133.604C50.6081 134.056 50.3871 134.46 50.1334 134.74C49.8798 135.016 49.6183 135.15 49.3804 135.104C49.1399 135.071 48.9474 134.816 48.8513 134.435C48.7555 134.05 48.7598 133.577 48.8564 133.105C49.0114 132.348 49.1763 131.571 49.3385 130.816C49.344 130.777 49.3497 130.737 49.3557 130.697C49.4017 130.396 49.4084 130.109 49.4161 129.818C49.4178 129.751 49.4208 129.68 49.4221 129.616Z" fill="var(--stroke-0, #FF3C3C)"/>
<path id="Vector 2" d="M70.1166 132.881C69.9806 132.325 69.988 131.258 69.9909 130.661C69.9909 130.65 69.9909 130.64 69.9909 130.629C69.9917 130.49 69.9882 130.358 69.9839 130.202C69.9736 129.83 69.9596 129.329 69.9924 128.283C69.9775 127.975 69.9642 127.676 69.9522 127.37C69.8221 124.082 69.7961 120.791 69.8132 117.492C69.8113 117.45 69.8095 117.409 69.8076 117.366C69.771 116.547 69.7275 115.522 69.7528 114.874C69.7852 114.062 69.8213 113.496 69.8535 113.044C69.8832 110.416 69.9174 107.82 69.9147 105.194C69.9146 105.166 69.9146 105.137 69.9145 105.108L69.9176 105.167C69.8573 104.379 69.7922 103.591 69.7217 102.805C69.6545 102.055 69.5835 101.303 69.5098 100.553C69.4458 100.119 69.3789 99.7049 69.3171 99.3215C69.2304 98.7832 69.1536 98.3038 69.1076 97.9055C68.9967 96.9471 68.9468 95.8531 68.9115 95.0405C68.9058 94.9077 68.9004 94.7825 68.8951 94.6664C68.8263 94.0244 68.7574 93.3819 68.6895 92.7395C68.6957 92.6957 68.7023 92.6516 68.7092 92.6068C68.7946 92.0472 68.7403 91.3722 68.6602 90.3085C68.6254 89.8453 68.5859 89.3086 68.5519 88.6753C68.5301 88.2678 68.5671 88.0543 68.5974 87.881C68.6063 87.8299 68.6146 87.7819 68.6207 87.7336C68.6416 87.5678 68.5961 87.3971 68.5427 87.1962C68.4733 86.9351 68.3903 86.6216 68.4215 86.1985C68.5217 84.8507 68.3684 84.2702 68.2512 83.8289C68.2169 83.6999 68.186 83.5826 68.166 83.4617C68.1572 83.4085 68.1498 83.3522 68.1438 83.2933C68.1434 83.2884 68.1432 83.2736 68.1429 83.2687C68.1154 82.8936 68.1466 82.423 68.193 82.0554C68.2354 81.7176 68.1787 81.0456 68.1129 80.5357C68.088 80.3418 68.0848 80.082 68.0816 79.7745C68.0782 79.4562 68.0748 79.0877 68.0466 78.6955C67.9753 77.7014 67.9421 77.1742 67.9152 76.7489C67.9075 76.6278 67.9006 76.5161 67.8934 76.4032C67.8706 76.0467 67.8516 75.6064 67.8326 75.1585C67.8099 74.6226 67.7873 74.0819 67.7577 73.6677C67.787 72.5978 67.8244 71.527 67.8621 70.4569C67.8817 69.9071 67.9924 69.3803 68.1751 68.9915C68.3579 68.6032 68.5962 68.3847 68.8432 68.3847C69.0903 68.3847 69.3286 68.6032 69.5114 68.9914C69.6941 69.3802 69.8051 69.9069 69.8248 70.4565C69.8643 71.5634 69.9041 72.6706 69.9369 73.7763C69.9769 75.1239 70.0065 76.4714 70.0135 77.8183C70.0185 78.7588 70.0193 79.7018 70.0191 80.6418C70.0191 80.7374 70.019 80.8369 70.019 80.933C70.089 81.7209 70.1574 82.5067 70.1894 83.0604C70.1927 83.1164 70.1951 83.17 70.1969 83.2214L70.1957 83.1876C70.2196 83.5646 70.207 83.8512 70.1964 84.1045C70.1881 84.3026 70.1808 84.4766 70.1935 84.6529C70.2003 84.7475 70.2113 84.8767 70.2248 85.032C70.2796 85.6671 70.3762 86.7449 70.3824 87.7339C70.3849 88.1725 70.3677 88.6842 70.3523 89.1726C70.3302 89.8711 70.312 90.5227 70.3567 90.8478C70.4349 91.4185 70.4553 92.0783 70.4745 92.6616C70.4928 93.2178 70.5098 93.7043 70.5733 93.9769C70.6492 94.302 70.6523 94.585 70.6574 95.0049C70.6611 95.2966 70.6657 95.6539 70.6967 96.1382C70.7325 96.6972 70.7323 97.0947 70.7321 97.433C70.732 97.9086 70.7321 98.2666 70.8355 98.7917C70.9503 99.3739 71.0452 99.9869 71.0683 100.472C71.0789 100.694 71.1035 100.945 71.1293 101.208C71.1636 101.557 71.1993 101.92 71.2066 102.257C71.2125 102.533 71.1853 102.766 71.161 102.97C71.1534 103.034 71.1462 103.096 71.1404 103.155C71.1606 103.373 71.1813 103.594 71.2022 103.812C71.2131 103.847 71.2249 103.883 71.2372 103.922C71.2988 104.113 71.3745 104.349 71.4279 104.644C71.4517 104.775 71.4697 104.902 71.4834 105.027C71.4839 105.039 71.4867 105.074 71.4864 105.086C71.4975 105.411 71.4824 105.716 71.4666 106.03C71.4496 106.368 71.432 106.719 71.4471 107.13C71.4573 107.408 71.4823 107.722 71.5071 108.03C71.5442 108.496 71.5812 108.957 71.5692 109.272C71.5648 109.39 71.5366 109.491 71.5086 109.593C71.5085 109.594 71.5083 109.594 71.5081 109.595C71.5062 109.602 71.5044 109.609 71.5025 109.616C71.5409 110.4 71.5824 111.167 71.6267 111.943C71.636 112.01 71.6451 112.077 71.6542 112.143C71.6983 112.466 71.7418 112.794 71.7974 112.999C71.8577 113.223 71.9034 113.787 71.9527 114.386C71.9848 114.774 72.0185 115.18 72.058 115.51C72.0812 115.703 72.0552 115.886 72.0285 116.073C72.0035 116.247 71.9782 116.434 71.9915 116.631C71.9982 116.73 72.0142 116.837 72.0312 116.95C72.0463 117.049 72.0622 117.154 72.0733 117.264C72.0836 117.363 72.0737 117.6 72.0613 117.895C72.0536 118.078 72.045 118.284 72.0394 118.499C72.077 119.08 72.1138 119.641 72.1506 120.222C72.1818 120.341 72.2206 120.443 72.2686 120.523C72.3031 120.581 72.3437 120.629 72.3852 120.679C72.4416 120.747 72.4999 120.816 72.5479 120.916C72.5855 120.994 72.6025 121.087 72.5902 121.149C72.5845 121.179 72.5726 121.201 72.5618 121.222C72.5494 121.245 72.5385 121.267 72.5397 121.292C72.5406 121.31 72.5505 121.328 72.5626 121.351C72.5819 121.387 72.6069 121.435 72.6103 121.508C72.6228 121.777 72.6264 122.09 72.6301 122.394C72.634 122.731 72.6381 123.059 72.6549 123.324C72.6736 123.62 72.6545 124.036 72.6361 124.461C72.6231 124.755 72.6103 125.046 72.6103 125.302C72.6103 125.551 72.6392 125.803 72.6676 126.052C72.7018 126.353 72.7346 126.639 72.7138 126.882C72.7096 126.931 72.6745 126.995 72.6307 127.075C72.5996 127.131 72.5641 127.196 72.5318 127.269C72.5441 127.581 72.5547 127.888 72.5643 128.203C72.5698 128.213 72.5754 128.224 72.5812 128.236C72.5813 128.236 72.5814 128.236 72.5815 128.236C72.711 128.487 72.8879 128.829 72.8099 129.326C72.7901 129.452 72.7474 129.531 72.709 129.603C72.6713 129.673 72.6377 129.739 72.6336 129.83C72.6291 129.935 72.6587 130.056 72.6908 130.188C72.736 130.374 72.7863 130.579 72.755 130.792C72.7529 130.806 72.7505 130.822 72.7482 130.838C72.726 130.992 72.6931 131.218 72.618 131.444C72.621 132.112 72.6191 132.774 72.6138 133.442C72.6049 134.552 72.5857 135.663 72.5603 136.774C72.5476 137.314 72.4456 137.836 72.2713 138.221C72.0968 138.606 71.8662 138.824 71.6239 138.829C71.3815 138.833 71.1438 138.624 70.9538 138.248C70.764 137.872 70.6387 137.36 70.5982 136.825C70.5327 135.952 70.463 135.076 70.3943 134.204C70.3877 134.158 70.3813 134.112 70.3752 134.066C70.3298 133.727 70.2506 133.411 70.1711 133.097C70.1528 133.025 70.1345 132.953 70.1166 132.881Z" fill="var(--stroke-0, #FF3C3C)"/>
<path id="Vector 3" d="M64.7311 53.8347C64.4472 53.958 63.8953 53.9279 63.5918 53.914C63.5862 53.9138 63.5807 53.9136 63.5751 53.9134C63.5036 53.91 63.4354 53.9112 63.3557 53.9128C63.1678 53.9169 62.909 53.9211 62.3767 53.8777C62.2224 53.8895 62.0713 53.9007 61.917 53.9115C61.5594 53.9368 61.2079 53.9617 60.8697 53.9932C60.7047 54.0085 60.5371 54.0265 60.3965 54.0459C60.3261 54.0555 60.2601 54.0662 60.2159 54.074C60.1789 54.0765 60.1259 54.1051 60.2582 54.0357C60.1313 53.9719 59.6375 54.7823 59.2756 55.6547C59.2688 55.668 59.2623 55.6814 59.2559 55.6947C59.252 55.7076 59.2483 55.7207 59.2446 55.7338C59.1688 55.9904 59.1644 56.3078 59.1494 56.5296C59.1269 56.8117 59.1466 57.0307 59.1691 57.2113C59.2631 57.5412 59.4256 57.8786 59.6282 58.1656C60.0938 58.8133 60.6765 59.3466 61.3819 59.7261C61.7139 59.906 62.0701 60.053 62.4436 60.1709C62.7863 60.2792 63.1442 60.3646 63.5078 60.4317C63.7248 60.4503 63.9321 60.4566 64.1263 60.4597C64.3993 60.4641 64.6411 60.4616 64.8417 60.4751C64.9064 60.4794 64.9727 60.4849 65.0402 60.4913C65.5167 60.5372 65.995 60.6552 66.3329 60.7311C66.3973 60.7456 66.4567 60.7587 66.5113 60.77C66.8199 60.794 67.0964 60.7964 67.3349 60.7615C67.3442 60.7662 67.3535 60.7709 67.3629 60.7757C67.3681 60.7798 67.3734 60.7839 67.3787 60.788C67.5313 60.8935 67.6686 60.8737 67.7894 60.6975C67.7949 60.6892 67.8004 60.6809 67.806 60.6726C67.9228 60.4962 68.0484 60.287 68.1806 60.0349C68.2651 59.8723 68.3467 59.8043 68.4145 59.7474C68.4344 59.7303 68.453 59.7142 68.4695 59.6969C68.5258 59.6378 68.521 59.5497 68.511 59.4493C68.4984 59.3172 68.4773 59.167 68.5742 58.9958C68.8782 58.4349 68.7486 58.1224 68.6629 57.9234C68.6364 57.8629 68.6117 57.8089 68.5973 57.7537C68.5514 57.5754 68.5798 57.3184 68.6175 57.1128C68.6494 56.9503 68.5562 56.6373 68.449 56.4091C68.4351 56.3791 68.423 56.3449 68.4116 56.307L68.499 56.5468C68.4536 56.4769 68.4081 56.3932 68.3578 56.2999C68.2781 56.1523 68.1874 55.982 68.0691 55.8135C67.7711 55.3884 67.6174 55.1729 67.4937 55.0058C67.4581 54.9574 67.4258 54.9145 67.3925 54.871C67.2885 54.7354 67.1665 54.5697 67.0439 54.4247C66.897 54.2491 66.7494 54.1098 66.6374 54.0429C66.5839 53.9806 66.5324 53.9275 66.4814 53.8819L66.7673 54.0266C66.6073 53.9416 66.226 53.8682 65.852 53.8267C65.5925 53.7967 65.3281 53.6844 65.1291 53.5011C64.9299 53.3178 64.815 53.0797 64.8152 52.8326C64.8155 52.5856 64.9281 52.347 65.1331 52.1648C65.3382 51.9829 65.6219 51.873 65.9305 51.8655C66.387 51.8615 66.8488 51.845 67.4544 52.0124C67.5062 52.035 67.6536 52.0993 67.6972 52.1353C67.8861 52.2551 68.057 52.3914 68.2096 52.5333C68.8873 53.1826 69.2492 53.8575 69.5972 54.4871C69.8055 54.8758 69.9984 55.256 70.1917 55.6296C70.2178 55.6888 70.29 55.8567 70.2978 55.9208C70.3099 55.9858 70.3216 56.052 70.3326 56.1178C70.3418 56.1724 70.3506 56.2279 70.3589 56.2829C70.4977 56.7208 70.5983 57.1872 70.6293 57.525C70.6558 57.804 70.6186 58.0113 70.5831 58.1858C70.5584 58.3064 70.5339 58.4119 70.5267 58.5207C70.5228 58.5788 70.5184 58.6594 70.5109 58.7557C70.4849 59.1483 70.3741 59.835 70.0861 60.3901C69.9616 60.6361 69.7804 60.9017 69.5937 61.136C69.4445 61.3242 69.2932 61.4927 69.1702 61.6342C69.0385 61.7975 68.9062 61.924 68.8163 62.0166C68.4843 62.3737 67.9247 62.5456 67.5093 62.5451C67.4796 62.5455 67.4504 62.5456 67.4216 62.5453C67.0574 62.5417 66.7694 62.4934 66.6044 62.5201C66.4067 62.5506 66.2483 62.51 66.0277 62.448C65.8748 62.405 65.6922 62.3507 65.4489 62.3039C65.1868 62.2537 65.0048 62.199 64.8486 62.1528C64.8367 62.1495 64.8251 62.1462 64.8135 62.143C64.5656 62.0722 64.3808 62.0173 64.0891 62.0316C63.7642 62.0474 63.4234 62.0276 63.1649 61.9534C63.0478 61.9199 62.911 61.8923 62.7675 61.8606C62.5798 61.8192 62.3787 61.7695 62.2056 61.6952C62.0615 61.6337 61.9543 61.5492 61.8606 61.4732C61.8314 61.4495 61.8041 61.4268 61.7765 61.4055C61.6601 61.3658 61.5445 61.3242 61.4293 61.2804C61.4079 61.2803 61.3854 61.2806 61.3615 61.2805C61.2424 61.2802 61.0944 61.2773 60.9271 61.2299C60.6618 61.1541 60.458 61.0165 60.2542 60.863C60.0952 60.743 59.9353 60.613 59.7396 60.4823C59.6058 60.393 59.4492 60.2968 59.297 60.1941C59.0712 60.0425 58.8576 59.8766 58.7411 59.7309C58.6976 59.6767 58.6782 59.6125 58.6603 59.5493C58.6603 59.549 58.6602 59.5487 58.6602 59.5484C58.659 59.5441 58.6578 59.5399 58.6566 59.5356C58.5532 59.435 58.4526 59.3319 58.354 59.2258C58.1336 58.9862 57.94 58.7298 57.7686 58.4547C57.742 58.4223 57.7154 58.3885 57.6896 58.3548C57.5631 58.1906 57.4508 58.0193 57.3554 57.9121C57.2515 57.7972 57.094 57.4563 56.9916 57.0588C56.923 56.7998 56.8786 56.5185 56.8505 56.2828C56.8337 56.145 56.872 56.0137 56.9176 55.884C56.9602 55.7627 57.0089 55.6421 57.0288 55.5052C57.0389 55.4362 57.0429 55.3604 57.0499 55.2788C57.0563 55.2064 57.0644 55.1317 57.0812 55.0535C57.0903 55.0112 57.1166 54.9436 57.1581 54.8571C57.1809 54.8134 57.2087 54.7626 57.2395 54.7057C57.2853 54.6215 57.3377 54.5242 57.3911 54.4186C57.4842 54.1209 57.5864 53.8092 57.7299 53.4778C57.7386 53.3986 57.7382 53.3226 57.7239 53.2531C57.7138 53.2031 57.6958 53.155 57.6787 53.1042C57.6555 53.0351 57.6325 52.9627 57.6328 52.876C57.6327 52.8088 57.6596 52.7405 57.6981 52.7085C57.7162 52.6933 57.7365 52.686 57.7548 52.6794C57.7758 52.6718 57.7945 52.6652 57.8055 52.6488C57.8133 52.6371 57.8144 52.6193 57.816 52.5976C57.8187 52.5629 57.8223 52.5179 57.8588 52.4683C57.9934 52.2859 58.1858 52.0793 58.4197 51.8955C58.5758 51.7721 58.7492 51.6607 58.918 51.5709C59.1328 51.4589 59.2479 51.4269 59.3536 51.3895C59.6298 51.2977 59.8987 51.2864 60.1586 51.2817C60.3335 51.2799 60.5071 51.2827 60.6498 51.2766C60.7895 51.2706 60.9283 51.2375 61.0666 51.206C61.2262 51.1689 61.3838 51.1343 61.5183 51.1546C61.5455 51.1587 61.5836 51.1935 61.6274 51.2373C61.6589 51.2684 61.6951 51.3039 61.7359 51.3362C61.9053 51.3243 62.0699 51.3154 62.2365 51.3084C62.242 51.303 62.2477 51.2975 62.2534 51.2919C62.2535 51.2917 62.2536 51.2916 62.2537 51.2915C62.3829 51.1643 62.5619 50.9907 62.8288 51.0754C62.8963 51.097 62.9404 51.1408 62.9801 51.1802C63.019 51.2189 63.0544 51.2535 63.1024 51.259C63.1572 51.2652 63.2207 51.2376 63.2904 51.2077C63.3893 51.1657 63.4961 51.1191 63.6094 51.1543C63.6171 51.1567 63.6254 51.1594 63.6341 51.162C63.7161 51.187 63.8352 51.2243 63.9567 51.3038C64.3075 51.3145 64.6583 51.3309 65.0083 51.3514C65.5918 51.3856 66.1735 51.4309 66.7555 51.4801C67.0376 51.5043 67.3112 51.6167 67.5095 51.7983C67.7111 51.9801 67.8207 52.2146 67.8207 52.4569C67.8206 52.6993 67.7113 52.9333 67.5129 53.1161C67.3176 53.2987 67.0496 53.4137 66.7723 53.4427C66.3188 53.4896 65.8656 53.5389 65.4134 53.5875C65.3898 53.593 65.366 53.5983 65.3424 53.6034C65.1666 53.6409 65.0044 53.7128 64.8426 53.7852C64.8055 53.8018 64.7683 53.8185 64.7311 53.8347Z" fill="var(--stroke-0, #FF3C3C)"/>
<path id="Vector 4" d="M53.828 46.0235C53.0969 44.8447 52.6021 42.4975 52.3944 41.2855C52.3902 41.2627 52.386 41.2398 52.3818 41.2168C52.3301 40.9289 52.2778 40.6547 52.217 40.332C52.1435 39.9423 52.0571 39.4751 51.9452 38.8247C51.8386 38.2077 51.7147 37.4231 51.5673 36.3803C51.4545 35.7572 51.3447 35.1357 51.2345 34.518C51.0827 33.6678 50.9287 32.8243 50.7603 31.9917C50.0814 26.0891 51.0532 20.8113 52.4401 15.4645C52.6093 14.8467 52.8234 14.2431 53.0877 13.6553C53.1243 13.5689 53.1643 13.4776 53.2044 13.3892C53.6784 12.2292 54.8312 10.755 55.2626 10.1744C55.5061 9.76948 55.6578 9.68741 55.7991 9.55787C55.9434 9.4395 56.064 9.35537 56.1822 9.27589C56.4156 9.12038 56.6297 8.99626 56.8201 8.89092C58.4027 8.04525 59.4512 7.62091 60.3267 7.23216C62.5401 6.19944 64.7427 5.20732 66.949 4.19142C69.7073 2.92571 72.5464 1.81783 75.5168 1.06039C77.1996 0.632937 78.9265 0.327383 80.6753 0.203504C80.749 0.198238 80.8219 0.193338 80.8941 0.188782C82.3983 0.0939736 83.9085 0.0394713 85.4174 0.0319861C86.3382 0.00626267 87.217 -0.00507056 88.0328 0.00212902C89.1793 0.012583 90.2055 0.0576546 91.0704 0.157368C91.5054 0.214051 91.8972 0.248187 92.4749 0.421025C92.7239 0.505346 92.9648 0.611693 93.2241 0.796878C93.3536 0.892783 93.4913 1.00427 93.6372 1.20264C93.772 1.38741 93.97 1.76056 93.8655 2.23404C93.2987 4.21092 91.7101 4.6965 90.9068 5.256C90.6713 5.39444 90.4553 5.52287 90.2611 5.64386C89.8163 5.93993 89.4039 6.24622 89.0396 6.58323C88.4737 7.10469 87.9118 7.63161 87.3565 8.16407C87.2852 8.21751 87.2138 8.27059 87.1404 8.32531C86.2313 9.00852 85.2118 9.96305 83.7228 11.5486C83.0801 12.2415 82.3424 13.0557 81.5729 14.0564C81.4682 14.1934 81.3726 14.3189 81.2892 14.4279C81.0425 14.7516 80.8921 15.0312 80.7531 15.2616C80.7024 15.3483 80.6537 15.434 80.6076 15.5197C80.448 15.8179 80.3408 16.1665 80.2058 16.5767C80.0662 17.0004 79.8965 17.4922 79.6077 18.0621C79.5354 18.2045 79.4562 18.3528 79.3688 18.5073C78.0115 20.9171 77.6224 22.0842 77.3185 22.9597C77.2304 23.2163 77.1498 23.4507 77.0577 23.6838C76.7575 24.4432 76.2331 25.4808 75.8088 26.2537C75.4731 26.8659 74.9273 28.1526 74.5183 29.137C74.3638 29.5096 74.1264 29.9994 73.8359 30.5752C73.6568 30.9299 73.4583 31.3157 73.2429 31.7277C73.1138 31.9753 72.9905 32.246 72.8759 32.5341C72.1865 34.351 71.9797 35.4285 71.7696 36.2596C71.7132 36.4988 71.6622 36.7222 71.6121 36.9473C71.4545 37.6549 71.2637 38.5395 71.0791 39.4417C70.858 40.5208 70.6422 41.6242 70.4857 42.4691C70.393 42.8643 70.2992 43.2609 70.2037 43.6568L70.2288 43.4896C70.0672 45.3022 69.8737 47.098 69.8104 48.8512C69.7735 49.8678 69.7233 50.8193 69.6713 51.5636C69.669 51.6393 69.6643 51.7145 69.6576 51.7864C69.5491 52.705 69.2727 53.1118 69.034 53.1214C68.7806 53.1301 68.5718 52.636 68.3284 51.9242C68.3088 51.8709 68.2886 51.8174 68.2676 51.7645C67.9915 50.9668 67.8457 49.9 67.8479 48.8189C67.8522 46.9526 67.9876 45.136 68.094 43.3282C68.0968 43.2992 68.1083 43.2142 68.1153 43.186C68.2136 42.7172 68.3104 42.2467 68.4072 41.7753C68.9761 39.0398 69.4987 36.2748 70.3989 33.5138C70.7018 32.608 71.0457 31.7002 71.528 30.8039C72.0079 29.9175 72.4661 28.9973 72.9168 28.0721C73.0033 27.8945 73.0921 27.711 73.1779 27.5329C73.8232 26.0299 74.4529 24.519 74.9184 23.4602C75.3024 22.5853 75.6229 21.9663 75.8989 21.4356C76.0886 21.0708 76.2572 20.7476 76.4103 20.4125C76.4925 20.2327 76.6034 19.986 76.7379 19.6888C77.0271 19.0497 77.4256 18.175 77.8856 17.2249C78.2917 16.3935 78.6721 15.5239 79.0842 14.6095C79.2515 14.2529 79.4528 13.8141 79.7928 13.3646C80.1713 12.8751 80.5876 12.3971 80.9997 11.9504C82.0135 10.8527 83.0128 9.92099 83.481 9.413C84.3034 8.52215 85.3213 7.58224 86.2333 6.76982C86.8718 6.20042 87.4597 5.69005 87.8841 5.29712C88.0533 5.14104 88.2031 5.00975 88.3267 4.89822C88.8837 4.39827 89.4321 4.07997 90.1875 3.65247C90.6919 3.35477 91.3854 3.01324 91.8709 2.45053C92.0421 2.24165 92.1326 2.05337 92.1846 1.85774C92.1408 2.10034 92.2468 2.2094 92.251 2.21444C92.2661 2.22726 92.2449 2.19926 92.2132 2.17488C92.1474 2.12192 92.0425 2.06548 91.9412 2.02547C91.8355 1.98245 91.656 1.93641 91.499 1.90043C90.5969 1.70597 89.858 1.61353 88.7711 1.60092C87.5655 1.59151 86.2966 1.60883 85.301 1.59168C84.8465 1.58353 84.325 1.59195 83.7856 1.60754C83.0692 1.62797 82.3159 1.66152 81.6275 1.6763C81.3992 1.68117 81.1895 1.68135 80.9879 1.67932C80.6973 1.67565 80.4316 1.67006 80.186 1.66812C80.0573 1.66721 79.9359 1.66716 79.8153 1.66942C79.3731 1.7193 78.9316 1.7816 78.4915 1.85566C78.4221 1.87493 78.3487 1.89599 78.2715 1.91836C77.8877 2.0301 77.4189 2.17483 76.8353 2.33565C75.9144 2.5907 75.0973 2.79067 74.2388 3.02906C73.5716 3.21522 72.8795 3.42632 72.104 3.72442C71.5764 3.92722 70.983 4.18191 70.399 4.44637C69.5344 4.83702 68.6907 5.25011 68.0915 5.51128C67.9398 5.57725 67.7966 5.628 67.6562 5.67415C67.5892 5.69629 67.5233 5.71705 67.4579 5.73762C67.4569 5.73785 67.456 5.73809 67.4551 5.73833C67.4412 5.74268 67.4273 5.7471 67.4135 5.75145C65.9706 6.46494 64.528 7.17684 63.0877 7.89587C62.9641 7.96364 62.8409 8.03116 62.7206 8.09725C62.1222 8.42517 61.5422 8.74577 61.1771 8.98077C60.7852 9.23503 59.7363 9.77744 58.693 10.3755C58.3578 10.5687 58.0189 10.7712 57.726 10.968C57.5821 11.0649 57.4451 11.1639 57.3435 11.2493C57.2508 11.3134 57.1505 11.4757 57.2924 11.2781C57.2843 11.2939 57.2761 11.3094 57.268 11.3246C56.9458 11.8786 56.7108 12.0678 56.4564 12.3632C56.2255 12.6195 55.9996 12.884 55.8084 13.2025C55.7125 13.3623 55.6206 13.5424 55.5305 13.7358C55.4515 13.9055 55.3724 14.0883 55.2916 14.279C55.2169 14.456 55.0238 14.8376 54.8294 15.358C54.7533 15.5616 54.6778 15.7832 54.6068 16.0236C54.5628 16.1741 54.5186 16.3284 54.475 16.4852C54.2121 17.6234 53.9844 18.7758 53.7935 19.9279C53.777 20.1717 53.7752 20.389 53.7923 20.56C53.8045 20.6825 53.826 20.7908 53.8483 20.9009C53.8786 21.0511 53.9107 21.2037 53.9239 21.4108C53.934 21.574 53.9203 21.7604 53.8882 21.8814C53.8732 21.9379 53.8544 21.9798 53.8371 22.0192C53.8175 22.0639 53.8 22.1038 53.7933 22.1544C53.7885 22.1909 53.7925 22.23 53.7973 22.278C53.8049 22.3548 53.8149 22.4535 53.7965 22.5998C53.7275 23.1483 53.6479 23.7696 53.582 24.3778C53.5082 25.0543 53.4515 25.7183 53.4283 26.2481C53.4017 26.8404 53.3325 27.6803 53.2987 28.5195C53.2746 29.1035 53.2674 29.6843 53.2896 30.1745C53.3092 30.6175 53.3725 31.0919 53.4605 31.4355C53.4684 31.4682 53.4763 31.5009 53.4842 31.5336C53.6332 32.1509 53.7668 32.7432 53.8296 33.2533C53.8422 33.3564 53.8285 33.49 53.8109 33.6568C53.7985 33.7753 53.7843 33.9114 53.776 34.0643C53.8901 34.7039 53.9995 35.3414 54.1088 35.9763C54.1177 35.9977 54.1269 36.0199 54.1362 36.0421C54.1364 36.0424 54.1366 36.0428 54.1368 36.0431C54.3469 36.5434 54.6323 37.2249 54.7247 38.2325C54.7266 38.2529 54.7283 38.2727 54.7297 38.292C54.7476 38.5224 54.7342 38.6751 54.7219 38.813C54.7096 38.9642 54.6986 39.0992 54.7261 39.283C54.7585 39.498 54.8291 39.734 54.9091 40.003C55.0193 40.3699 55.145 40.7856 55.1934 41.2075C55.1968 41.2367 55.2003 41.2679 55.2042 41.3003C55.2401 41.6054 55.2965 42.0576 55.3225 42.5089C55.6183 43.7984 55.9934 44.9891 56.651 45.9871C57.1418 46.7431 57.7981 47.4152 58.5489 48.0409C59.498 48.8306 60.4721 49.5858 61.4822 50.265C62.3773 50.8685 63.2161 51.4423 63.8373 51.876C64.4541 52.3138 64.8326 52.5884 64.8015 52.8315C64.7774 53.0695 64.2332 53.2498 63.36 53.1044C62.4907 52.9656 61.4222 52.5246 60.4284 51.9208C59.3057 51.24 58.2469 50.4949 57.2185 49.7156C56.7387 49.3506 56.2671 48.9532 55.8234 48.508C55.7468 48.4354 55.6679 48.3577 55.593 48.2816C55.0305 47.7102 54.5299 47.1165 54.1073 46.4735C54.01 46.3256 53.9173 46.1764 53.828 46.0235Z" fill="var(--stroke-0, #FF3C3C)"/>
<path id="Vector 5" d="M82.5524 55.3145C83.798 55.1468 86.195 55.1316 87.5114 55.1365C87.5353 55.1365 87.5592 55.1365 87.5832 55.1365C87.8964 55.1372 88.189 55.1341 88.5395 55.1308C89.3649 55.124 90.4799 55.1119 92.8088 55.1813C93.4855 55.1776 94.1652 55.1772 94.8408 55.1803C95.2144 55.182 95.5792 55.1845 95.9539 55.1879C98.4616 55.1445 101.488 55.826 103.596 57.3706C106.42 59.0291 107.196 62.52 108.214 64.377C109.242 66.25 109.648 68.0968 110.094 69.9102C110.117 70.0004 110.141 70.0922 110.164 70.1849C110.566 71.759 111.007 73.6389 111.383 74.931C111.439 75.123 111.489 75.3056 111.534 75.4771C112.006 77.2808 112.203 78.5343 112.358 79.5483C113.062 83.6884 113.461 87.7922 113.917 91.9169C114.095 93.5776 114.25 95.2348 114.369 96.8956C114.499 98.7113 114.59 100.547 114.588 102.395C114.577 104.086 114.524 105.8 114.159 107.546C113.99 108.376 113.739 109.321 113.129 110.019C112.968 110.218 112.671 110.518 112.163 110.561C111.627 110.587 111.317 110.338 111.127 110.187C110.93 110.018 110.81 109.868 110.695 109.719C110.478 109.429 110.324 109.161 110.184 108.904C109.91 108.394 109.705 107.929 109.528 107.508C109.107 106.508 108.734 105.42 108.339 104.484C107.921 103.51 107.452 102.588 107.025 101.815C106.887 101.565 106.753 101.33 106.626 101.112C105.89 99.9277 105.084 98.7742 104.241 97.6497C104.194 97.5683 104.146 97.4859 104.097 97.4018C103.485 96.3594 102.584 95.1791 101.077 93.3887C100.837 93.1031 100.58 92.8026 100.306 92.4832C99.8337 91.935 99.3086 91.3392 98.7184 90.6894C98.1169 90.0287 97.8346 89.6635 97.604 89.3637C97.5367 89.2763 97.4726 89.1937 97.4056 89.1116C97.1774 88.8319 96.887 88.5861 96.5405 88.2983C96.0918 87.9263 95.5511 87.4848 94.9198 86.813C92.8972 84.6788 91.8004 83.9557 90.9942 83.3938C90.7579 83.232 90.538 83.0816 90.3255 82.9236C90.0407 82.7114 89.7177 82.4504 89.3882 82.1695C88.9018 81.7548 88.4193 81.3118 88.0115 80.9205C87.4709 80.4028 86.3069 79.4693 85.4148 78.7668C85.0767 78.5012 84.6431 78.1205 84.1322 77.6665C83.605 77.1983 82.9973 76.653 82.3333 76.0888C80.6583 74.6623 79.7749 73.9269 79.0562 73.3888C78.8508 73.2349 78.6616 73.0984 78.4692 72.9668C78.3805 72.9063 78.2847 72.8421 78.1902 72.7809C77.6041 72.3989 76.9159 71.9668 76.2053 71.5477C75.2075 70.9575 74.1642 70.3913 73.3551 69.9669C73.0761 69.8043 72.796 69.6413 72.5153 69.477C72.5045 69.4711 72.4731 69.4517 72.4626 69.4453C70.7188 68.2923 69.0359 67.0634 67.4329 65.684C66.7796 65.1192 66.1865 64.5019 65.7349 63.8988C65.7258 63.8897 65.7003 63.8606 65.6918 63.8508C65.4883 63.544 65.33 63.222 65.2276 62.9509C64.9078 62.0809 64.9053 61.5519 65.1154 61.4288C65.3326 61.3048 65.7717 61.6335 66.3588 62.2394C66.5444 62.4273 66.7303 62.6106 66.9469 62.8018L66.9121 62.763C67.4447 63.1812 68.0621 63.6684 68.6937 64.1798C70.2437 65.4305 71.9148 66.5726 73.6205 67.6338L73.5757 67.6068C73.9304 67.8015 74.2865 67.9961 74.6436 68.1924C76.2397 69.0662 77.8513 69.9948 79.3862 71.04C80.4349 71.7582 81.3349 72.5547 82.2212 73.3375C83.7909 74.7402 85.3231 76.1481 86.8812 77.5187C87.0457 77.6637 87.1996 77.7992 87.3636 77.9429C88.5582 78.9084 89.7614 79.8574 90.6915 80.5951C90.8143 80.6924 90.9386 80.7912 91.0534 80.8828C91.8542 81.5211 92.4077 82.0243 92.8813 82.4627C93.2053 82.7626 93.4959 83.0346 93.7943 83.2907C93.9573 83.4306 94.1797 83.6201 94.4438 83.8483C95.5328 84.7838 97.3445 86.4252 98.8473 88.0732C99.5145 88.8003 100.261 89.6792 100.949 90.5299C101.177 90.812 101.397 91.0883 101.611 91.3593C102.316 92.2536 102.917 93.0373 103.287 93.4663C104.13 94.4433 105.017 95.632 105.765 96.709C106.482 97.736 107.072 98.6589 107.445 99.1632C107.891 99.7656 108.212 100.318 108.658 101.161C108.964 101.746 109.334 102.47 109.789 103.482C109.835 103.586 109.879 103.687 109.921 103.785C110.354 104.829 110.578 105.574 110.801 106.215C111.142 107.18 111.393 107.996 111.986 108.796C112.085 108.925 112.228 109.031 112.203 108.998C112.194 108.982 112.055 108.948 111.966 108.982C111.878 109.013 111.879 109.03 111.896 109C112.34 108.494 112.501 107.743 112.662 107.091C112.766 106.645 112.843 106.115 112.898 105.555C112.972 104.812 113.009 104.021 113.049 103.291C113.081 102.686 113.128 102.186 113.166 101.75C113.178 101.614 113.188 101.481 113.197 101.349C113.187 100.873 113.17 100.37 113.149 99.9044C113.138 99.8271 113.126 99.7452 113.113 99.6589C113.048 99.2132 112.967 98.7067 112.897 98.0506C112.784 97.0083 112.735 96.1055 112.673 95.1458C112.624 94.3971 112.565 93.6048 112.457 92.7304C112.433 92.5304 112.405 92.3189 112.375 92.0986C112.312 91.6481 112.246 91.2022 112.177 90.7333C112.026 89.7145 111.875 88.7208 111.804 88.0132C111.778 87.7577 111.778 87.5166 111.78 87.2946C111.78 87.2936 111.78 87.2926 111.78 87.2916C111.78 87.2764 111.78 87.2611 111.78 87.2459C111.538 85.5453 111.283 83.8505 110.989 82.1724C110.958 82.0249 110.927 81.8789 110.896 81.7371C110.743 81.0298 110.583 80.3458 110.447 79.9108C110.3 79.4352 110.031 78.233 109.664 76.9984C109.525 76.5266 109.372 76.0489 109.218 75.5981C109.101 75.2536 108.995 74.9243 108.9 74.6233C108.766 74.203 108.693 73.794 108.621 73.3754C108.554 72.9848 108.488 72.5853 108.377 72.1606C108.322 71.948 108.254 71.7207 108.181 71.4791C108.117 71.2664 108.049 71.0421 107.982 70.8072C107.92 70.5888 107.816 70.0944 107.671 69.4714C107.581 69.0861 107.474 68.6517 107.349 68.2048C107.035 67.2532 106.677 66.3192 106.213 65.5552C106.078 65.3326 105.955 65.1081 105.841 64.8845C105.688 64.6363 105.554 64.4264 105.435 64.2683C105.35 64.155 105.268 64.0632 105.185 63.9698C105.072 63.8426 104.957 63.7117 104.83 63.5248C104.732 63.3785 104.642 63.201 104.603 63.0749C104.586 63.0163 104.579 62.9686 104.572 62.9254C104.565 62.8759 104.559 62.832 104.537 62.7847C104.522 62.7506 104.498 62.7189 104.468 62.6803C104.42 62.6189 104.359 62.5395 104.295 62.409C104.06 61.922 103.785 61.4241 103.46 61.0021C103.103 60.5304 102.677 60.1467 102.284 59.8824C102.22 59.8387 102.15 59.792 102.074 59.7425C101.577 59.4188 100.99 59.0311 100.382 58.741C99.8828 58.4996 99.3577 58.3182 98.8796 58.2055C98.411 58.0938 97.9013 58.0417 97.3946 58.0168C96.887 57.9915 96.3843 57.9925 95.9323 57.9766C95.8392 57.9735 95.7486 57.9693 95.6608 57.9637C95.5513 57.9568 95.416 57.9184 95.2474 57.8705C95.1278 57.8365 94.9867 57.7977 94.8291 57.7619C94.1426 57.7588 93.4531 57.7562 92.7653 57.7544C92.741 57.7596 92.716 57.7648 92.691 57.7701C92.6906 57.7702 92.6902 57.7704 92.6898 57.7705C92.1252 57.891 91.3569 58.0565 90.268 57.9688C89.9891 57.9466 89.8219 57.9026 89.6608 57.8632C89.5054 57.8245 89.3682 57.7899 89.1688 57.7848C88.935 57.7791 88.6748 57.8074 88.3754 57.8389C87.9676 57.8829 87.5027 57.9332 87.041 57.9028C87.0096 57.9007 86.9768 57.8984 86.941 57.8962C86.5995 57.8749 86.1112 57.8438 85.6108 57.7727C84.149 57.7876 82.6731 57.8059 81.2278 57.853C81.1633 57.8552 81.086 57.8583 81.0264 57.8606C78.6352 57.9621 76.2451 58.0236 73.8531 58.0551C72.6553 58.0702 71.5003 57.9853 70.6502 57.8155C69.7979 57.6458 69.3214 57.4092 69.3239 57.1672C69.3223 56.9245 69.7944 56.6926 70.6305 56.4978C71.4652 56.3036 72.5995 56.1615 73.7852 56.0936C75.7191 55.9831 77.657 55.8503 79.5883 55.7022C79.6868 55.6916 79.7925 55.6806 79.8921 55.6703C80.233 55.6352 80.5609 55.5931 80.881 55.5467C81.2934 55.4897 81.6729 55.4354 82.0657 55.381C82.2221 55.3587 82.3907 55.3361 82.5524 55.3145Z" fill="var(--stroke-0, #FF3C3C)"/>
<path id="Vector 6" d="M57.331 69.6401C56.8823 70.763 55.6678 72.754 54.9475 73.8057C54.9344 73.8253 54.9213 73.8448 54.9082 73.8644C54.7392 74.1153 54.5801 74.3556 54.3938 74.632C54.0105 75.1967 53.5103 75.9369 52.4949 77.2289C52.3189 77.4524 52.1315 77.6876 51.9324 77.9337C51.539 78.4597 51.1467 78.973 50.7481 79.4807C48.413 82.463 45.5478 85.6775 42.3374 87.6364C39.5788 89.6335 36.7341 90.8408 33.8103 92.0463C33.7282 92.0813 33.6451 92.1166 33.5612 92.152C31.9383 92.8437 29.88 93.6023 28.5481 93.9731C27.0185 94.405 25.9045 94.6426 24.9876 94.8098C24.8916 94.8273 24.798 94.8438 24.7066 94.8596C19.7945 95.7722 14.7536 96.1724 9.72293 94.5064C9.09228 94.2353 8.52878 93.9053 7.98775 93.5648C6.57703 92.6778 5.28985 91.6288 3.9867 90.9494C3.87727 90.8944 3.77053 90.8357 3.66649 90.7736C2.06421 89.7829 1.16441 88.2658 0.394866 86.8323C0.341592 86.736 0.289472 86.6403 0.238562 86.5458C0.124278 86.3134 -0.0194409 86.0472 0.00217795 85.582C0.0153207 85.3531 0.11695 85.0712 0.284192 84.8741C0.449705 84.674 0.636651 84.5615 0.795725 84.4871C1.19851 84.2936 1.60486 84.1302 2.00426 83.9983C3.20316 83.6017 4.2934 83.4995 5.0928 83.3863C5.99042 83.2704 6.85072 83.1029 7.66478 82.7916C8.68888 82.4066 9.65902 81.9797 10.4654 81.5871C10.7091 81.4687 10.9388 81.3536 11.1517 81.2443C12.3158 80.6075 13.4418 79.8836 14.6951 79.2145C14.7837 79.1799 14.8747 79.1453 14.9663 79.1116C15.4053 78.9505 15.8835 78.7645 16.4551 78.5871C17.2898 78.332 18.2801 77.9627 19.5393 77.43C20.4242 77.0548 21.4435 76.5986 22.6273 76.0304C22.8177 75.9388 22.9875 75.8594 23.1373 75.7914C23.6013 75.5805 23.901 75.4771 24.161 75.3866C24.2613 75.3521 24.3578 75.3186 24.4535 75.2833C24.7788 75.1637 25.0947 74.9773 25.4697 74.7587C25.9544 74.476 26.537 74.1396 27.3684 73.8285C30.0145 72.8434 31.1063 72.2508 31.934 71.7946C32.1776 71.6611 32.3988 71.5406 32.6274 71.4293C33.1287 71.1854 33.7943 70.9178 34.4351 70.6877C34.7453 70.5765 35.0491 70.4704 35.325 70.3763C35.9898 70.1519 37.26 69.5483 38.2226 69.0665C38.5865 68.8848 39.0918 68.6667 39.6925 68.4156C39.7491 68.392 39.8065 68.3681 39.8648 68.3439C40.4176 68.1144 41.0338 67.827 41.6656 67.4706C43.4151 66.4664 44.2953 65.8079 45.0273 65.3118C45.2347 65.1679 45.4287 65.0328 45.6228 64.8974C45.9075 64.6989 46.2266 64.4785 46.5687 64.2474C46.9607 63.9824 47.3786 63.7034 47.7992 63.424C48.738 62.8002 49.6911 62.1724 50.4054 61.6834C51.2698 61.1496 52.1331 60.6168 52.9744 60.0755C52.986 60.0674 53.0224 60.0455 53.0345 60.0381C54.1109 59.436 55.1883 58.839 56.2643 58.2421C56.9844 57.8428 57.7068 57.495 58.3493 57.2366L58.303 57.2655C58.5553 57.141 58.8862 56.9987 59.1606 56.9386C60.1248 56.7425 60.6036 56.9431 60.6639 57.1694C60.7278 57.4161 60.2814 57.7214 59.7005 58.161C59.5359 58.2907 59.4028 58.4218 59.1984 58.6086C59.191 58.6133 59.1688 58.6276 59.1611 58.6318C58.616 59.0645 57.9519 59.5181 57.2453 59.9421C56.1892 60.5754 55.1344 61.2073 54.0809 61.8413L54.1317 61.8096C53.2154 62.4411 52.2963 63.0456 51.3765 63.6481C50.155 64.4474 48.9328 65.2374 47.7208 66.0329C46.5843 66.7794 45.4352 67.5679 44.2193 68.2962C43.0736 68.9839 41.8693 69.6176 40.6066 70.1346C39.9823 70.3905 39.3582 70.6547 38.7314 70.9216C38.5441 71.0014 38.3565 71.0814 38.1686 71.1614C37.1402 71.6529 36.1002 72.1425 35.188 72.5412C34.7804 72.7203 34.3983 72.8894 34.0601 73.0373C33.179 73.4232 32.5204 73.6697 31.9576 73.881C31.5691 74.0271 31.2274 74.1565 30.8876 74.3071C30.7063 74.3875 30.4579 74.4998 30.1594 74.6355C28.9412 75.1897 26.872 76.14 24.9901 76.9751C24.6616 77.1211 24.3143 77.274 23.9598 77.433C23.3905 77.6897 22.7908 77.9444 22.205 78.1829C20.826 78.7466 19.5177 79.2125 18.8713 79.4862C18.2902 79.7339 17.6525 79.9724 17.0036 80.1874C16.4596 80.3664 15.9139 80.607 15.3982 80.8611C14.3899 81.3637 13.4899 81.8799 12.9975 82.2002C12.4083 82.5883 11.8678 82.8657 11.0471 83.2459C10.4771 83.5076 9.77 83.8206 8.79839 84.2081C8.62018 84.279 8.45573 84.3419 8.29085 84.4029C7.3676 84.7435 6.62633 84.8615 6.00466 84.9362C4.96751 85.0564 4.21323 85.0461 3.1948 85.307C2.58248 85.4658 1.98928 85.6858 1.44265 85.9458C1.43178 85.9525 1.46381 85.9457 1.51049 85.8902C1.5583 85.8361 1.58457 85.7446 1.58464 85.7129C1.58223 85.6463 1.59233 85.7449 1.64405 85.8387C1.70885 85.9688 1.77228 86.0957 1.83276 86.2166C2.03391 86.6184 2.28575 87.0612 2.57409 87.4929C2.95474 88.0651 3.4034 88.6115 3.85285 89.0272C4.13609 89.2906 4.39183 89.4943 4.63652 89.6542C4.73442 89.7146 4.82831 89.7761 4.91646 89.8359C5.03418 89.9159 5.14373 89.9939 5.24896 90.0697C5.66402 90.317 6.05904 90.579 6.4462 90.8403C6.51349 90.8767 6.58357 90.9142 6.65701 90.9538C7.02525 91.1519 7.47224 91.3987 7.99951 91.7212C8.8329 92.2274 9.53076 92.7001 10.2792 93.0556C10.2934 93.0622 10.3075 93.0688 10.3216 93.0753C10.8664 93.3228 11.5542 93.5189 12.3407 93.6553C12.8908 93.7502 13.5334 93.8179 14.1711 93.8581C15.1151 93.9192 16.0566 93.9192 16.7092 93.9388C16.9571 93.9464 17.163 93.9747 17.375 94.001C17.3759 94.0012 17.3768 94.0013 17.3778 94.0015C17.3921 94.0033 17.4065 94.005 17.4209 94.0068C19.0161 93.9535 20.6084 93.781 22.1824 93.5055C22.3173 93.4764 22.4542 93.4462 22.5906 93.4154C23.2497 93.267 23.8913 93.0998 24.2953 92.9592C24.3642 92.9354 24.4501 92.9082 24.5508 92.8777C25.0865 92.7163 26.0427 92.4497 27.029 92.1256C27.7957 91.8755 28.5831 91.5938 29.218 91.3415C29.5885 91.1944 29.9558 91.096 30.3328 90.9913C30.6848 90.8935 31.0456 90.79 31.4245 90.6345C31.6137 90.5568 31.8155 90.4634 32.0294 90.3628C32.2172 90.2745 32.417 90.1794 32.6263 90.0845C32.8202 89.9966 33.2664 89.8299 33.8354 89.605C34.1862 89.4663 34.5843 89.3052 34.9977 89.1282C36.0689 88.6129 37.1272 88.068 38.147 87.4872C38.3519 87.3433 38.5135 87.2112 38.6391 87.0868C38.7278 86.9983 38.7924 86.9157 38.8634 86.8278C38.9612 86.7074 39.0532 86.5877 39.2017 86.4444C39.3194 86.3314 39.4584 86.2275 39.5728 86.171C39.6245 86.1458 39.6676 86.1329 39.7064 86.1213C39.751 86.1079 39.7901 86.0962 39.8297 86.0695C39.8598 86.0492 39.8858 86.0206 39.917 85.986C39.9678 85.9299 40.0271 85.8617 40.1418 85.7799C40.2954 85.6703 40.4534 85.554 40.5972 85.4414C40.9747 85.1456 41.3394 84.9096 41.664 84.6885C42.2317 84.307 42.7314 83.9322 43.1197 83.5944C43.5557 83.2193 44.1883 82.6842 44.8044 82.1025C45.2351 81.6976 45.6575 81.2757 46.0115 80.8946C46.349 80.532 46.6893 80.1095 46.9998 79.7118C47.3836 79.2215 47.7343 78.7567 48.0783 78.3757C48.1504 78.2955 48.254 78.2259 48.3898 78.1301C48.4856 78.0628 48.5964 77.9839 48.7175 77.8865C49.1134 77.3822 49.5081 76.8706 49.9042 76.3497C49.9136 76.3288 49.9234 76.3072 49.9331 76.2855C49.9332 76.2851 49.9334 76.2848 49.9335 76.2844C50.0239 76.0825 50.1296 75.8468 50.2742 75.5803C50.4705 75.2132 50.7361 74.7948 51.1263 74.342C51.2931 74.1487 51.4255 74.0383 51.5412 73.9435C51.6554 73.8496 51.7584 73.7638 51.8708 73.6123C51.9962 73.4434 52.119 73.2167 52.246 72.9758C52.4282 72.6319 52.6247 72.2505 52.8871 71.908C52.9051 71.8845 52.9245 71.8591 52.9446 71.8326C53.1342 71.5835 53.4114 71.2133 53.7202 70.858C54.4382 69.6973 55.1189 68.5034 55.7522 67.292C56.8121 65.2647 57.7465 63.1775 58.5605 61.0302C58.957 59.9868 59.3876 59.0022 59.7883 58.2942C60.1897 57.5844 60.532 57.2138 60.7666 57.2773C60.9991 57.3431 61.108 57.8406 61.0511 58.6709C60.9948 59.4984 60.7704 60.586 60.4116 61.6825C59.8276 63.4694 59.1591 65.2344 58.4005 66.9614C58.3634 67.0533 58.3259 67.1451 58.2881 67.2359C58.0046 67.9175 57.7638 68.5572 57.5092 69.1982C57.4517 69.3436 57.391 69.4936 57.331 69.6401Z" fill="var(--stroke-0, #FF3C3C)"/>
</g>
</svg>
